<?xml version="1.0" encoding="UTF-8"?>
<svg width="372px" height="252px" viewBox="0 0 372 252" version="1.1" xmlns="http://www.w3.org/2000/svg" xmlns:xlink="http://www.w3.org/1999/xlink">
    <!-- Generator: Sketch 51.1 (57501) - http://www.bohemiancoding.com/sketch -->
    <title>bull_right</title>
    <desc>Created with Sketch.</desc>
    <defs></defs>
    <g id="Page-1" stroke="none" stroke-width="1" fill="none" fill-rule="evenodd">
        <g id="One-page-desktop" transform="translate(-1068.000000, -3515.000000)" fill="#D8D8D8">
            <g id="Meeting" transform="translate(-116.000000, 3097.000000)">
                <g id="bull_right" transform="translate(1184.000000, 418.000000)">
                    <polygon id="Path-3-Copy" transform="translate(205.000000, 134.500000) scale(-1, 1) translate(-205.000000, -134.500000) " points="0 259.010236 146.418114 112.255625 223.384957 164.337724 301.674889 65.6476907 330.934652 83.6161089 381.564455 22.6390791 370.122998 12.4989519 410 0 410 40.1188164 397.061935 30.147848 330.934652 112.255625 310.963616 94.2966042 223.384957 197.73248 146.418114 140.223204 21.5815159 269"></polygon>
                    <path d="M79.609375,67.1818182 L79.6818182,61.7002841 C76.5747951,61.4910027 73.7374655,60.7746273 71.1697443,59.5511364 C68.6020231,58.3276454 66.5414377,56.5890264 64.9879261,54.3352273 C63.4344146,52.0814281 62.633523,49.3125164 62.5852273,46.0284091 L71.90625,46.0284091 C72.0350385,48.2822082 72.8158072,50.0449747 74.2485795,51.3167614 C75.6813519,52.588548 77.5246099,53.3532184 79.7784091,53.6107955 L79.9474432,39.4360795 L77.7258523,38.7840909 C73.7012109,37.5766985 70.4050791,35.8260058 67.837358,33.5319602 C65.2696368,31.2379147 63.9857955,28.3120443 63.9857955,24.7542614 C63.9857955,22.1301952 64.6900971,19.8120366 66.0987216,17.7997159 C67.5073461,15.7873952 69.4431695,14.1815874 71.90625,12.9822443 C74.3693305,11.7829012 77.1704388,11.0946979 80.3096591,10.9176136 L80.3821023,5.36363636 L84.9701705,5.36363636 L84.8977273,11.0383523 C89.2121428,11.5696049 92.6974299,13.1351669 95.3536932,15.7350852 C98.0099565,18.3350035 99.378314,21.6230862 99.4588068,25.5994318 L90.3792614,25.5994318 C90.0411915,22.1704374 88.1818351,20.0535078 84.8011364,19.2485795 L84.6321023,32.2642045 L85.1633523,32.4332386 C89.8158377,33.9626023 93.3977147,35.8501308 95.9090909,38.0958807 C98.4204671,40.3416305 99.6761364,43.3801892 99.6761364,47.2116477 C99.6761364,51.3006833 98.2836313,54.616938 95.4985795,57.1605114 C92.7135277,59.7040847 88.9706674,61.1931796 84.2698864,61.6278409 L84.1974432,67.1818182 L79.609375,67.1818182 Z M73.2826705,24.7542614 C73.2826705,26.1709351 73.8863576,27.3300144 75.09375,28.2315341 C76.3011424,29.1330538 77.9592698,29.9701666 80.0681818,30.7428977 L80.2130682,19.03125 C78.1202547,19.2566299 76.4420044,19.8844645 75.178267,20.9147727 C73.9145297,21.9450809 73.2826705,23.2248977 73.2826705,24.7542614 Z M90.4517045,47.2840909 C90.4517045,45.9318114 89.9929023,44.7646829 89.0752841,43.7826705 C88.1576659,42.800658 86.6444234,41.8750043 84.5355114,41.0056818 L84.3664773,53.4417614 C86.3305022,53.0392972 87.8356955,52.2706023 88.8821023,51.1356534 C89.928509,50.0007046 90.4517045,48.7168632 90.4517045,47.2840909 Z" id="$-copy-2"></path>
                </g>
            </g>
        </g>
    </g>
</svg>