<?xml version="1.0" encoding="UTF-8"?>
<svg width="475px" height="346px" viewBox="0 0 475 346" version="1.1" xmlns="http://www.w3.org/2000/svg" xmlns:xlink="http://www.w3.org/1999/xlink">
    <!-- Generator: Sketch 51.1 (57501) - http://www.bohemiancoding.com/sketch -->
    <title>bull_left</title>
    <desc>Created with Sketch.</desc>
    <defs></defs>
    <g id="Page-1" stroke="none" stroke-width="1" fill="none" fill-rule="evenodd">
        <g id="One-page-desktop" transform="translate(0.000000, -3511.000000)" fill="#D8D8D8">
            <g id="Meeting" transform="translate(-116.000000, 3097.000000)">
                <g id="bull_left" transform="translate(0.000000, 414.000000)">
                    <polygon id="Path-3" points="0 430.399909 211.056354 186.536298 322.001243 273.081645 434.853315 109.087427 477.030194 138.945727 550.011202 37.619585 533.51876 20.7696339 591 0 591 66.6658399 572.350253 50.0969816 477.030194 186.536298 448.242676 156.693614 322.001243 328.574046 211.056354 233.010306 31.1089656 447"></polygon>
                    <path d="M469.125,104.727273 L469.227273,96.9886364 C464.840887,96.6931803 460.835245,95.6818268 457.210227,93.9545455 C453.585209,92.2272641 450.676147,89.7727432 448.482955,86.5909091 C446.289762,83.409075 445.159091,79.5000232 445.090909,74.8636364 L458.25,74.8636364 C458.431819,78.0454705 459.534081,80.5340819 461.556818,82.3295455 C463.579556,84.125009 466.181802,85.2045436 469.363636,85.5681818 L469.602273,65.5568182 L466.465909,64.6363636 C460.784063,62.9318097 456.1307,60.4602435 452.505682,57.2215909 C448.880664,53.9829384 447.068182,49.8522978 447.068182,44.8295455 C447.068182,41.1249815 448.06249,37.8522869 450.051136,35.0113636 C452.039783,32.1704403 454.77271,29.9034176 458.25,28.2102273 C461.72729,26.517037 465.681796,25.5454558 470.113636,25.2954545 L470.215909,17.4545455 L476.693182,17.4545455 L476.590909,25.4659091 C482.681849,26.2159128 487.602254,28.426118 491.352273,32.0965909 C495.102291,35.7670638 497.03409,40.4090628 497.147727,46.0227273 L484.329545,46.0227273 C483.85227,41.181794 481.227297,38.1931875 476.454545,37.0568182 L476.215909,55.4318182 L476.965909,55.6704545 C483.534124,57.8295562 488.590891,60.4943023 492.136364,63.6647727 C495.681836,66.8352431 497.454545,71.124973 497.454545,76.5340909 C497.454545,82.306847 495.488656,86.9886184 491.556818,90.5795455 C487.62498,94.1704725 482.340942,96.2727242 475.704545,96.8863636 L475.602273,104.727273 L469.125,104.727273 Z M460.193182,44.8295455 C460.193182,46.8295555 461.045446,48.4659027 462.75,49.7386364 C464.454554,51.01137 466.79544,52.1931764 469.772727,53.2840909 L469.977273,36.75 C467.022713,37.0681834 464.653418,37.9545382 462.869318,39.4090909 C461.085218,40.8636436 460.193182,42.6704438 460.193182,44.8295455 Z M484.431818,76.6363636 C484.431818,74.7272632 483.784097,73.0795524 482.488636,71.6931818 C481.193175,70.3068113 479.056833,69.0000061 476.079545,67.7727273 L475.840909,85.3295455 C478.61365,84.7613608 480.738629,83.6761444 482.215909,82.0738636 C483.693189,80.4715829 484.431818,78.659101 484.431818,76.6363636 Z" id="$-copy"></path>
                </g>
            </g>
        </g>
    </g>
</svg>