<?xml version="1.0" encoding="UTF-8"?>
<svg width="65px" height="107px" viewBox="0 0 65 107" version="1.1" xmlns="http://www.w3.org/2000/svg" xmlns:xlink="http://www.w3.org/1999/xlink">
    <!-- Generator: Sketch 51.1 (57501) - http://www.bohemiancoding.com/sketch -->
    <title>money4</title>
    <desc>Created with Sketch.</desc>
    <defs></defs>
    <g id="Page-1" stroke="none" stroke-width="1" fill="none" fill-rule="evenodd">
        <g id="One-page-desktop" transform="translate(-869.000000, -3955.000000)" fill="#D8D8D8">
            <g id="Meeting" transform="translate(-116.000000, 3097.000000)">
                <path d="M1014.88672,964.636364 L1015.01136,955.204901 C1009.66546,954.844814 1004.78358,953.612226 1000.36559,951.507102 C995.947599,949.401978 992.40218,946.410531 989.729226,942.53267 C987.056272,938.65481 985.678267,933.890653 985.59517,928.240057 L1001.63281,928.240057 C1001.8544,932.117917 1003.19779,935.150912 1005.663,937.339134 C1008.12821,939.527355 1011.2997,940.843038 1015.17756,941.286222 L1015.46839,916.897372 L1011.64595,915.775568 C1004.7212,913.698143 999.049916,910.685922 994.631925,906.738814 C990.213934,902.791706 988.004972,897.757488 988.004972,891.636009 C988.004972,887.121071 989.216785,883.132475 991.640447,879.670099 C994.06411,876.207724 997.394865,873.44479 1001.63281,871.381214 C1005.87076,869.317639 1010.69031,868.133524 1016.09162,867.828835 L1016.21626,858.272727 L1024.11044,858.272727 L1023.9858,868.036577 C1031.40913,868.950644 1037.40587,871.644331 1041.97621,876.11772 C1046.54654,880.591109 1048.90092,886.248545 1049.03942,893.090199 L1033.41726,893.090199 C1032.83558,887.190311 1029.63639,883.547947 1023.8196,882.162997 L1023.52876,904.557528 L1024.44283,904.848366 C1032.44784,907.479772 1038.61077,910.727431 1042.93182,914.591442 C1047.25286,918.455453 1049.41335,923.683561 1049.41335,930.275923 C1049.41335,937.31147 1047.01742,943.017379 1042.2255,947.393821 C1037.43357,951.770263 1030.99365,954.332383 1022.90554,955.080256 L1022.78089,964.636364 L1014.88672,964.636364 Z M1004.00107,891.636009 C1004.00107,894.073521 1005.03976,896.067819 1007.11719,897.618963 C1009.19461,899.170107 1012.04757,900.610434 1015.67614,901.939986 L1015.92543,881.789062 C1012.32456,882.176849 1009.43698,883.257093 1007.26261,885.02983 C1005.08823,886.802566 1004.00107,889.004603 1004.00107,891.636009 Z M1033.5419,930.400568 C1033.5419,928.073852 1032.75249,926.065704 1031.17365,924.376065 C1029.59481,922.686426 1026.99114,921.093757 1023.36257,919.598011 L1023.07173,940.995384 C1026.45101,940.302908 1029.04083,938.980301 1030.84126,937.027521 C1032.6417,935.074742 1033.5419,932.865779 1033.5419,930.400568 Z" id="money4"></path>
            </g>
        </g>
    </g>
</svg>