<?xml version="1.0" encoding="UTF-8"?>
<svg width="82px" height="136px" viewBox="0 0 82 136" version="1.1" xmlns="http://www.w3.org/2000/svg" xmlns:xlink="http://www.w3.org/1999/xlink">
    <!-- Generator: Sketch 51.1 (57501) - http://www.bohemiancoding.com/sketch -->
    <title>money3</title>
    <desc>Created with Sketch.</desc>
    <defs></defs>
    <g id="Page-1" stroke="none" stroke-width="1" fill="none" fill-rule="evenodd">
        <g id="One-page-desktop" transform="translate(-854.000000, -3562.000000)" fill="#D8D8D8">
            <g id="Meeting" transform="translate(-116.000000, 3097.000000)">
                <path d="M1007.30291,600.454545 L1007.46165,588.443537 C1000.65361,587.984965 994.436522,586.41526 988.810192,583.734375 C983.183862,581.05349 978.668755,577.243869 975.264737,572.305398 C971.860719,567.366926 970.105824,561.299752 970,554.103693 L990.424006,554.103693 C990.706204,559.042165 992.417006,562.904697 995.556463,565.691406 C998.69592,568.478115 1002.73482,570.153643 1007.6733,570.71804 L1008.04368,539.658736 L1003.17578,538.230114 C994.357082,535.584504 987.134675,531.748427 981.508345,526.721768 C975.882015,521.69511 973.068892,515.284012 973.068892,507.488281 C973.068892,501.738489 974.612141,496.658995 977.698686,492.249645 C980.785231,487.840295 985.026962,484.321687 990.424006,481.693714 C995.82105,479.065742 1001.95877,477.557767 1008.83736,477.169744 L1008.99609,465 L1019.04936,465 L1018.89062,477.434304 C1028.34427,478.598372 1035.98115,482.028795 1041.80149,487.725675 C1047.62183,493.422555 1050.62015,500.627324 1050.79652,509.340199 L1030.90163,509.340199 C1030.16086,501.826667 1026.08668,497.188101 1018.67898,495.424361 L1018.30859,523.943892 L1019.47266,524.314276 C1029.66707,527.665381 1037.5156,531.801289 1043.01847,536.722124 C1048.52133,541.642958 1051.27273,548.300976 1051.27273,556.696378 C1051.27273,565.656176 1048.2215,572.922676 1042.11896,578.496094 C1036.01642,584.069512 1027.81516,587.332382 1017.51491,588.284801 L1017.35618,600.454545 L1007.30291,600.454545 Z M993.439986,507.488281 C993.439986,510.592463 994.762771,513.132211 997.408381,515.107599 C1000.05399,517.082988 1003.68724,518.91725 1008.30824,520.61044 L1008.62571,494.948153 C1004.03999,495.442001 1000.36264,496.817697 997.593572,499.075284 C994.824501,501.332871 993.439986,504.137175 993.439986,507.488281 Z M1031.06037,556.855114 C1031.06037,553.892031 1030.05505,551.334646 1028.04439,549.182884 C1026.03373,547.031121 1022.71794,545.00285 1018.09695,543.098011 L1017.72656,570.347656 C1022.03009,569.465786 1025.32823,567.78144 1027.62109,565.294567 C1029.91396,562.807694 1031.06037,559.994571 1031.06037,556.855114 Z" id="money3"></path>
            </g>
        </g>
    </g>
</svg>