<?xml version="1.0" encoding="UTF-8"?>
<svg width="65px" height="107px" viewBox="0 0 65 107" version="1.1" xmlns="http://www.w3.org/2000/svg" xmlns:xlink="http://www.w3.org/1999/xlink">
    <!-- Generator: Sketch 51.1 (57501) - http://www.bohemiancoding.com/sketch -->
    <title>money5</title>
    <desc>Created with Sketch.</desc>
    <defs></defs>
    <g id="Page-1" stroke="none" stroke-width="1" fill="none" fill-rule="evenodd">
        <g id="One-page-desktop" transform="translate(-1226.000000, -3945.000000)" fill="#D8D8D8">
            <g id="Meeting" transform="translate(-116.000000, 3097.000000)">
                <path d="M1371.88672,954.636364 L1372.01136,945.204901 C1366.66546,944.844814 1361.78358,943.612226 1357.36559,941.507102 C1352.9476,939.401978 1349.40218,936.410531 1346.72923,932.53267 C1344.05627,928.65481 1342.67827,923.890653 1342.59517,918.240057 L1358.63281,918.240057 C1358.8544,922.117917 1360.19779,925.150912 1362.663,927.339134 C1365.12821,929.527355 1368.2997,930.843038 1372.17756,931.286222 L1372.46839,906.897372 L1368.64595,905.775568 C1361.7212,903.698143 1356.04992,900.685922 1351.63192,896.738814 C1347.21393,892.791706 1345.00497,887.757488 1345.00497,881.636009 C1345.00497,877.121071 1346.21678,873.132475 1348.64045,869.670099 C1351.06411,866.207724 1354.39487,863.44479 1358.63281,861.381214 C1362.87076,859.317639 1367.69031,858.133524 1373.09162,857.828835 L1373.21626,848.272727 L1381.11044,848.272727 L1380.9858,858.036577 C1388.40913,858.950644 1394.40587,861.644331 1398.97621,866.11772 C1403.54654,870.591109 1405.90092,876.248545 1406.03942,883.090199 L1390.41726,883.090199 C1389.83558,877.190311 1386.63639,873.547947 1380.8196,872.162997 L1380.52876,894.557528 L1381.44283,894.848366 C1389.44784,897.479772 1395.61077,900.727431 1399.93182,904.591442 C1404.25286,908.455453 1406.41335,913.683561 1406.41335,920.275923 C1406.41335,927.31147 1404.01742,933.017379 1399.2255,937.393821 C1394.43357,941.770263 1387.99365,944.332383 1379.90554,945.080256 L1379.78089,954.636364 L1371.88672,954.636364 Z M1361.00107,881.636009 C1361.00107,884.073521 1362.03976,886.067819 1364.11719,887.618963 C1366.19461,889.170107 1369.04757,890.610434 1372.67614,891.939986 L1372.92543,871.789062 C1369.32456,872.176849 1366.43698,873.257093 1364.26261,875.02983 C1362.08823,876.802566 1361.00107,879.004603 1361.00107,881.636009 Z M1390.5419,920.400568 C1390.5419,918.073852 1389.75249,916.065704 1388.17365,914.376065 C1386.59481,912.686426 1383.99114,911.093757 1380.36257,909.598011 L1380.07173,930.995384 C1383.45101,930.302908 1386.04083,928.980301 1387.84126,927.027521 C1389.6417,925.074742 1390.5419,922.865779 1390.5419,920.400568 Z" id="money5"></path>
            </g>
        </g>
    </g>
</svg>