<?xml version="1.0" encoding="UTF-8"?>
<svg width="117px" height="194px" viewBox="0 0 117 194" version="1.1" xmlns="http://www.w3.org/2000/svg" xmlns:xlink="http://www.w3.org/1999/xlink">
    <!-- Generator: Sketch 51.1 (57501) - http://www.bohemiancoding.com/sketch -->
    <title>money2</title>
    <desc>Created with Sketch.</desc>
    <defs></defs>
    <g id="Page-1" stroke="none" stroke-width="1" fill="none" fill-rule="evenodd">
        <g id="One-page-desktop" transform="translate(-432.000000, -3751.000000)" fill="#D8D8D8">
            <g id="Meeting" transform="translate(-116.000000, 3097.000000)">
                <path d="M601.546875,847.272727 L601.772727,830.183239 C592.086126,829.530773 583.240334,827.297368 575.235085,823.482955 C567.229837,819.668542 560.805659,814.248141 555.962358,807.221591 C551.119057,800.195041 548.62216,791.562551 548.471591,781.323864 L577.53125,781.323864 C577.932767,788.350414 580.366928,793.846098 584.833807,797.81108 C589.300685,801.776061 595.047313,804.160034 602.073864,804.963068 L602.600852,760.771307 L595.674716,758.738636 C583.127305,754.974413 572.851129,749.516371 564.845881,742.364347 C556.840632,735.212322 552.838068,726.090491 552.838068,714.99858 C552.838068,706.817667 555.033832,699.590467 559.425426,693.316761 C563.81702,687.043056 569.852234,682.036714 577.53125,678.297585 C585.210266,674.558457 593.943133,672.412882 603.730114,671.860795 L603.955966,654.545455 L618.259943,654.545455 L618.034091,672.237216 C631.484916,673.893474 642.350811,678.774344 650.632102,686.879972 C658.913394,694.985599 663.17945,705.23668 663.430398,717.633523 L635.12358,717.633523 C634.069597,706.943128 628.27278,700.343289 617.732955,697.833807 L617.205966,738.411932 L618.862216,738.93892 C633.367023,743.706937 644.534052,749.591584 652.363636,756.59304 C660.193221,763.594495 664.107955,773.067649 664.107955,785.012784 C664.107955,797.760954 659.766615,808.099866 651.083807,816.02983 C642.400998,823.959793 630.732081,828.602266 616.076705,829.957386 L615.850852,847.272727 L601.546875,847.272727 Z M581.822443,714.99858 C581.822443,719.415268 583.704527,723.028869 587.46875,725.839489 C591.232973,728.650109 596.402429,731.259931 602.977273,733.669034 L603.428977,697.15625 C596.904323,697.858905 591.672131,699.816272 587.732244,703.028409 C583.792357,706.240546 581.822443,710.230563 581.822443,714.99858 Z M635.349432,785.238636 C635.349432,781.022706 633.919048,777.384012 631.058239,774.322443 C628.197429,771.260875 623.479673,768.375014 616.90483,765.664773 L616.377841,804.43608 C622.500978,803.181338 627.193639,800.784819 630.455966,797.246449 C633.718293,793.708079 635.349432,789.705515 635.349432,785.238636 Z" id="money2"></path>
            </g>
        </g>
    </g>
</svg>