<?xml version="1.0" encoding="UTF-8"?>
<svg width="76px" height="126px" viewBox="0 0 76 126" version="1.1" xmlns="http://www.w3.org/2000/svg" xmlns:xlink="http://www.w3.org/1999/xlink">
    <!-- Generator: Sketch 51.1 (57501) - http://www.bohemiancoding.com/sketch -->
    <title>money1</title>
    <desc>Created with Sketch.</desc>
    <defs></defs>
    <g id="Page-1" stroke="none" stroke-width="1" fill="none" fill-rule="evenodd">
        <g id="One-page-desktop" transform="translate(-89.000000, -3978.000000)" fill="#D8D8D8">
            <g id="Meeting" transform="translate(-116.000000, 3097.000000)">
                <path d="M240.148438,1006.54545 L240.295455,995.421165 C233.990025,994.996447 228.231915,993.542626 223.020952,991.059659 C217.809988,988.576692 213.628212,985.048318 210.475497,980.474432 C207.322783,975.900545 205.697444,970.281283 205.599432,963.616477 L224.515625,963.616477 C224.77699,968.190364 226.361491,971.767743 229.269176,974.348722 C232.176861,976.9297 235.917591,978.481531 240.491477,979.004261 L240.834517,950.237926 L236.325994,948.914773 C228.15834,946.464476 221.469131,942.9116 216.258168,938.256037 C211.047204,933.600474 208.441761,927.662678 208.441761,920.442472 C208.441761,915.117161 209.871079,910.412662 212.729759,906.328835 C215.588438,902.245008 219.51702,898.986163 224.515625,896.552202 C229.51423,894.118241 235.198832,892.721593 241.569602,892.362216 L241.716619,881.090909 L251.027699,881.090909 L250.880682,892.607244 C259.636407,893.685375 266.70949,896.862545 272.100142,902.138849 C277.490794,907.415154 280.267755,914.088028 280.431108,922.15767 L262.004972,922.15767 C261.318889,915.198829 257.545489,910.902707 250.684659,909.269176 L250.341619,935.683239 L251.419744,936.026278 C260.861553,939.129987 268.130656,942.96056 273.227273,947.518111 C278.323889,952.075662 280.872159,958.242149 280.872159,966.017756 C280.872159,974.316093 278.046193,981.046139 272.394176,986.208097 C266.742159,991.370054 259.146355,994.392041 249.606534,995.274148 L249.459517,1006.54545 L240.148438,1006.54545 Z M227.308949,920.442472 C227.308949,923.317486 228.534079,925.669735 230.984375,927.49929 C233.434671,929.328844 236.799695,931.027691 241.079545,932.595881 L241.37358,908.828125 C237.126399,909.285514 233.720538,910.559649 231.155895,912.650568 C228.591251,914.741488 227.308949,917.338763 227.308949,920.442472 Z M262.151989,966.164773 C262.151989,963.420441 261.22089,961.051857 259.358665,959.058949 C257.49644,957.066041 254.425448,955.187509 250.145597,953.423295 L249.802557,978.661222 C253.788372,977.844456 256.843029,976.284458 258.966619,973.981179 C261.090209,971.6779 262.151989,969.072458 262.151989,966.164773 Z" id="money1"></path>
            </g>
        </g>
    </g>
</svg>